<svg width="38" height="41" viewBox="0 0 38 41" fill="none" xmlns="http://www.w3.org/2000/svg">
<path d="M18.994 2.19302C14.8605 2.1888 10.8609 3.77287 7.71162 6.66132C4.56236 9.54979 2.46936 13.5538 1.80767 17.956C1.14599 22.3582 1.95887 26.8707 4.10064 30.6849C6.24242 34.4993 9.5731 37.366 13.4958 38.7715C14.364 38.9346 14.6393 38.3847 14.6393 37.8886C14.6393 37.4397 14.6484 36.1962 14.6393 34.6247C9.79922 35.7573 8.79942 32.1522 8.79942 32.1522C8.48032 31.0181 7.79575 30.0445 6.86943 29.4073C5.29034 28.2422 6.98741 28.2649 6.98741 28.2649C7.53874 28.3466 8.06547 28.5632 8.52737 28.898C8.98926 29.2328 9.37411 29.6774 9.65249 30.1972C9.88798 30.6602 10.2062 31.0681 10.5888 31.3976C10.9713 31.727 11.4107 31.9713 11.8813 32.1165C12.3519 32.2615 12.8446 32.3044 13.3307 32.2429C13.8168 32.1813 14.2868 32.0162 14.7134 31.7572C14.7937 30.8086 15.1852 29.922 15.8176 29.2573C11.9561 28.7806 7.89493 27.1716 7.89493 19.9779C7.87042 18.1131 8.51225 16.3096 9.68728 14.9418C9.15483 13.3237 9.21544 11.5472 9.85669 9.97576C9.85669 9.97576 11.3193 9.47149 14.6393 11.9015C17.4907 11.0572 20.5002 11.0572 23.3515 11.9015C26.6791 9.47312 28.1296 9.97576 28.1296 9.97576C28.771 11.547 28.8328 13.3231 28.3021 14.9418C29.4774 16.3105 30.1183 18.1155 30.0914 19.9812C30.0914 27.1945 26.0241 28.7791 22.1491 29.2409C22.5653 29.692 22.8869 30.2344 23.0923 30.8313C23.2976 31.4282 23.3819 32.0656 23.3394 32.7006V37.8967C23.3394 38.3977 23.6208 38.9526 24.5041 38.7715C28.4278 37.3657 31.7591 34.4979 33.9009 30.6822C36.0425 26.8666 36.8546 22.3525 36.1913 17.9496C35.5281 13.5465 33.4329 9.54235 30.2814 6.65495C27.1299 3.76754 23.1284 2.18569 18.994 2.19302Z" fill="white"/>
</svg>
