<svg width="41" height="41" viewBox="0 0 41 41" fill="none" xmlns="http://www.w3.org/2000/svg">
<path fill-rule="evenodd" clip-rule="evenodd" d="M4.65909 9.31818C7.23223 9.31818 9.31818 7.23223 9.31818 4.65909C9.31818 2.08595 7.23223 0 4.65909 0C2.08595 0 0 2.08595 0 4.65909C0 7.23223 2.08595 9.31818 4.65909 9.31818ZM9.31818 41V13.0455H0V41H9.31818ZM13.0455 13.0455H21.4318V16.6724C22.7671 14.9181 25.6172 13.0455 30.75 13.0455C38.8201 13.0455 41 21.0971 41 26.0909V41H31.6818V26.0909C31.6818 24.2273 30.75 20.5 27.0227 20.5C24.376 20.5 22.5124 22.3795 21.4318 24.1365V41H13.0455V13.0455Z" fill="#E40037"/>
</svg>
