<svg width="41" height="41" viewBox="0 0 41 41" fill="none" xmlns="http://www.w3.org/2000/svg">
<path fill-rule="evenodd" clip-rule="evenodd" d="M12.3 0C5.5069 0 0 5.5069 0 12.3V28.7C0 35.4931 5.5069 41 12.3 41H28.7C35.4931 41 41 35.4931 41 28.7V12.3C41 5.5069 35.4931 0 28.7 0H12.3ZM2.73333 12.3C2.73333 7.01647 7.01648 2.73333 12.3 2.73333H28.7C33.9835 2.73333 38.2667 7.01648 38.2667 12.3V28.7C38.2667 33.9835 33.9835 38.2667 28.7 38.2667H12.3C7.01647 38.2667 2.73333 33.9835 2.73333 28.7V12.3ZM34.1667 10.0222C34.1667 11.2802 33.147 12.3 31.8889 12.3C30.6308 12.3 29.6111 11.2802 29.6111 10.0222C29.6111 8.76423 30.6308 7.74444 31.8889 7.74444C33.147 7.74444 34.1667 8.76423 34.1667 10.0222ZM20.5 12.7556C16.2229 12.7556 12.7556 16.2229 12.7556 20.5C12.7556 24.7771 16.2229 28.2444 20.5 28.2444C24.7771 28.2444 28.2444 24.7771 28.2444 20.5C28.2444 16.2229 24.7771 12.7556 20.5 12.7556ZM10.0222 20.5C10.0222 14.7133 14.7133 10.0222 20.5 10.0222C26.2866 10.0222 30.9778 14.7133 30.9778 20.5C30.9778 26.2866 26.2866 30.9778 20.5 30.9778C14.7133 30.9778 10.0222 26.2866 10.0222 20.5Z" fill="white"/>
</svg>
