<svg width="40" height="41" viewBox="0 0 40 41" fill="none" xmlns="http://www.w3.org/2000/svg">
<path d="M40 4.85808C38.4995 5.6934 36.912 6.24372 35.2875 6.49166C36.9947 5.21082 38.2786 3.17598 38.8983 0.768765C37.2843 1.97804 35.5213 2.82652 33.685 3.27787C32.9117 2.23956 31.9818 1.41356 30.9516 0.850066C29.9215 0.286575 28.8126 -0.00263438 27.6925 1.8081e-05C23.1575 1.8081e-05 19.4875 4.63386 19.4875 10.3461C19.4843 11.1406 19.5553 11.9328 19.6992 12.7057C16.4472 12.5104 13.2629 11.4475 10.35 9.58508C7.43703 7.72265 4.85957 5.10168 2.7825 1.88986C2.05381 3.46378 1.66844 5.25958 1.66667 7.08958C1.66667 10.6771 3.1275 13.8482 5.33333 15.706C4.02644 15.6662 2.74633 15.223 1.60167 14.414V14.5422C1.60167 19.5604 4.435 23.7351 8.185 24.6854C7.47982 24.9262 6.75314 25.0482 6.02333 25.0484C5.50548 25.0495 4.98881 24.9852 4.48083 24.8562C5.52333 28.9669 8.5575 31.9564 12.1517 32.0418C9.23115 34.9256 5.64552 36.4843 1.95833 36.4728C1.30385 36.4716 0.649971 36.4217 0 36.3233C3.75098 39.3922 8.11121 41.0154 12.5617 40.9999C27.675 40.9999 35.9317 25.2299 35.9317 11.5526C35.9317 11.1041 35.9225 10.6557 35.9058 10.218C37.5084 8.7574 38.8948 6.94235 40 4.85808V4.85808Z" fill="#E40037"/>
</svg>
